<svg id="visual" viewBox="0 0 1400 900" width="1400" height="900" xmlns="http://www.w3.org/2000/svg" xmlns:xlink="http://www.w3.org/1999/xlink" version="1.1"><rect x="0" y="0" width="1400" height="900" fill="#fff"></rect><path d="M0 744L15.5 737.3C31 730.7 62 717.3 93.2 717.8C124.3 718.3 155.7 732.7 186.8 739.3C218 746 249 745 280 739.3C311 733.7 342 723.3 373.2 712.5C404.3 701.7 435.7 690.3 466.8 693.5C498 696.7 529 714.3 560 722C591 729.7 622 727.3 653.2 725.8C684.3 724.3 715.7 723.7 746.8 722.3C778 721 809 719 840 720.5C871 722 902 727 933.2 724.3C964.3 721.7 995.7 711.3 1026.8 711C1058 710.7 1089 720.3 1120 726.7C1151 733 1182 736 1213.2 732.7C1244.3 729.3 1275.7 719.7 1306.8 721.8C1338 724 1369 738 1384.5 745L1400 752L1400 901L1384.5 901C1369 901 1338 901 1306.8 901C1275.7 901 1244.3 901 1213.2 901C1182 901 1151 901 1120 901C1089 901 1058 901 1026.8 901C995.7 901 964.3 901 933.2 901C902 901 871 901 840 901C809 901 778 901 746.8 901C715.7 901 684.3 901 653.2 901C622 901 591 901 560 901C529 901 498 901 466.8 901C435.7 901 404.3 901 373.2 901C342 901 311 901 280 901C249 901 218 901 186.8 901C155.7 901 124.3 901 93.2 901C62 901 31 901 15.5 901L0 901Z" fill="#ffffff"></path><path d="M0 766L15.5 767C31 768 62 770 93.2 770.3C124.3 770.7 155.7 769.3 186.8 763.7C218 758 249 748 280 744.7C311 741.3 342 744.7 373.2 751.2C404.3 757.7 435.7 767.3 466.8 765.8C498 764.3 529 751.7 560 748.8C591 746 622 753 653.2 751.8C684.3 750.7 715.7 741.3 746.8 736.8C778 732.3 809 732.7 840 739.7C871 746.7 902 760.3 933.2 756.3C964.3 752.3 995.7 730.7 1026.8 719.5C1058 708.3 1089 707.7 1120 710.5C1151 713.3 1182 719.7 1213.2 729.8C1244.3 740 1275.7 754 1306.8 754.8C1338 755.7 1369 743.3 1384.5 737.2L1400 731L1400 901L1384.5 901C1369 901 1338 901 1306.8 901C1275.7 901 1244.3 901 1213.2 901C1182 901 1151 901 1120 901C1089 901 1058 901 1026.8 901C995.7 901 964.3 901 933.2 901C902 901 871 901 840 901C809 901 778 901 746.8 901C715.7 901 684.3 901 653.2 901C622 901 591 901 560 901C529 901 498 901 466.8 901C435.7 901 404.3 901 373.2 901C342 901 311 901 280 901C249 901 218 901 186.8 901C155.7 901 124.3 901 93.2 901C62 901 31 901 15.5 901L0 901Z" fill="#e1dbf4"></path><path d="M0 804L15.5 794.5C31 785 62 766 93.2 761.3C124.3 756.7 155.7 766.3 186.8 766.8C218 767.3 249 758.7 280 758.8C311 759 342 768 373.2 773.2C404.3 778.3 435.7 779.7 466.8 784.7C498 789.7 529 798.3 560 795.2C591 792 622 777 653.2 776.5C684.3 776 715.7 790 746.8 793.5C778 797 809 790 840 779.8C871 769.7 902 756.3 933.2 758C964.3 759.7 995.7 776.3 1026.8 786.5C1058 796.7 1089 800.3 1120 797.7C1151 795 1182 786 1213.2 783C1244.3 780 1275.7 783 1306.8 784.7C1338 786.3 1369 786.7 1384.5 786.8L1400 787L1400 901L1384.5 901C1369 901 1338 901 1306.8 901C1275.7 901 1244.3 901 1213.2 901C1182 901 1151 901 1120 901C1089 901 1058 901 1026.8 901C995.7 901 964.3 901 933.2 901C902 901 871 901 840 901C809 901 778 901 746.8 901C715.7 901 684.3 901 653.2 901C622 901 591 901 560 901C529 901 498 901 466.8 901C435.7 901 404.3 901 373.2 901C342 901 311 901 280 901C249 901 218 901 186.8 901C155.7 901 124.3 901 93.2 901C62 901 31 901 15.5 901L0 901Z" fill="#c2b9e8"></path><path d="M0 775L15.5 782.7C31 790.3 62 805.7 93.2 808.5C124.3 811.3 155.7 801.7 186.8 802C218 802.3 249 812.7 280 810.8C311 809 342 795 373.2 793.8C404.3 792.7 435.7 804.3 466.8 809.3C498 814.3 529 812.7 560 811.2C591 809.7 622 808.3 653.2 802.2C684.3 796 715.7 785 746.8 786.8C778 788.7 809 803.3 840 804.5C871 805.7 902 793.3 933.2 790.7C964.3 788 995.7 795 1026.8 796.7C1058 798.3 1089 794.7 1120 791.3C1151 788 1182 785 1213.2 784.5C1244.3 784 1275.7 786 1306.8 791.2C1338 796.3 1369 804.7 1384.5 808.8L1400 813L1400 901L1384.5 901C1369 901 1338 901 1306.8 901C1275.7 901 1244.3 901 1213.2 901C1182 901 1151 901 1120 901C1089 901 1058 901 1026.8 901C995.7 901 964.3 901 933.2 901C902 901 871 901 840 901C809 901 778 901 746.8 901C715.7 901 684.3 901 653.2 901C622 901 591 901 560 901C529 901 498 901 466.8 901C435.7 901 404.3 901 373.2 901C342 901 311 901 280 901C249 901 218 901 186.8 901C155.7 901 124.3 901 93.2 901C62 901 31 901 15.5 901L0 901Z" fill="#a298dc"></path><path d="M0 833L15.5 835.7C31 838.3 62 843.7 93.2 841.3C124.3 839 155.7 829 186.8 822.7C218 816.3 249 813.7 280 816.3C311 819 342 827 373.2 828.5C404.3 830 435.7 825 466.8 820.5C498 816 529 812 560 811.7C591 811.3 622 814.7 653.2 817.7C684.3 820.7 715.7 823.3 746.8 826.7C778 830 809 834 840 832.7C871 831.3 902 824.7 933.2 823.2C964.3 821.7 995.7 825.3 1026.8 823.8C1058 822.3 1089 815.7 1120 819.5C1151 823.3 1182 837.7 1213.2 843.5C1244.3 849.3 1275.7 846.7 1306.8 841.8C1338 837 1369 830 1384.5 826.5L1400 823L1400 901L1384.5 901C1369 901 1338 901 1306.8 901C1275.7 901 1244.3 901 1213.2 901C1182 901 1151 901 1120 901C1089 901 1058 901 1026.8 901C995.7 901 964.3 901 933.2 901C902 901 871 901 840 901C809 901 778 901 746.8 901C715.7 901 684.3 901 653.2 901C622 901 591 901 560 901C529 901 498 901 466.8 901C435.7 901 404.3 901 373.2 901C342 901 311 901 280 901C249 901 218 901 186.8 901C155.7 901 124.3 901 93.2 901C62 901 31 901 15.5 901L0 901Z" fill="#8178d0"></path><path d="M0 850L15.5 850.2C31 850.3 62 850.7 93.2 851.3C124.3 852 155.7 853 186.8 856C218 859 249 864 280 864.2C311 864.3 342 859.7 373.2 858.2C404.3 856.7 435.7 858.3 466.8 857.8C498 857.3 529 854.7 560 855.3C591 856 622 860 653.2 859.3C684.3 858.7 715.7 853.3 746.8 851.2C778 849 809 850 840 851C871 852 902 853 933.2 856C964.3 859 995.7 864 1026.8 864C1058 864 1089 859 1120 858.5C1151 858 1182 862 1213.2 860.3C1244.3 858.7 1275.7 851.3 1306.8 847.2C1338 843 1369 842 1384.5 841.5L1400 841L1400 901L1384.5 901C1369 901 1338 901 1306.8 901C1275.7 901 1244.3 901 1213.2 901C1182 901 1151 901 1120 901C1089 901 1058 901 1026.8 901C995.7 901 964.3 901 933.2 901C902 901 871 901 840 901C809 901 778 901 746.8 901C715.7 901 684.3 901 653.2 901C622 901 591 901 560 901C529 901 498 901 466.8 901C435.7 901 404.3 901 373.2 901C342 901 311 901 280 901C249 901 218 901 186.8 901C155.7 901 124.3 901 93.2 901C62 901 31 901 15.5 901L0 901Z" fill="#5c59c3"></path></svg>